<svg width="174" height="100" viewBox="0 0 174 100" xmlns="http://www.w3.org/2000/svg" xmlns:xlink="http://www.w3.org/1999/xlink"><title>images/brand/brand</title><defs><path id="path-1" d="M0 .057h50.357v64.61H0"/><path id="path-3" d="M0 .057h50.357v64.61H0"/><path id="path-5" d="M0 .057h50.357v64.61H0"/><path id="path-7" d="M0 .238h113.621V100H0"/><path id="path-9" d="M0 .238h113.621V100H0"/><path id="path-11" d="M0 .238h113.621V100H0V.238z"/><path id="path-13" d="M0 .238h113.621V100H0"/><path id="path-15" d="M0 .238h113.621V100H0V.238z"/></defs><g id="Page-1" fill="none" fill-rule="evenodd"><g id="Desktop-HD" transform="translate(-47 -42)"><g id="images/brand/brand" transform="translate(47 42)"><g id="Page-1" transform="translate(122.792 7.333)"><path d="M5.623 35.082c-.182.11-.39.185-.564.308-.366.26-.368.208-.248.63.144.507.52.96.708 1.465.126.337.306 1.442.552 1.554.287.132 1.21-.584 1.487-.704.325-.141.698-.177.856-.554.188-.45-.03-1.275-.173-1.708-.12-.368-.432-1.127-.787-1.322-.482-.266-1.389.175-1.83.331-.027.016.585-.207 0 0" id="Fill-1" fill="#FEFEFE"/><path d="M5.967 43.098c.2-.345 1.355-.089 1.711-.083.789.013.596.268.332 1.03-.242.7-.545 1.535-1.207.807-.137-.151-1.011-1.676-.836-1.754.056-.097-.014.006 0 0m2.29 17.735c-.087-1.019-.1-2.046-.111-3.069-.005-.383-.131-1.385.057-1.723.167-.302.827-.207 1.234-.255.987-.118 1.99-.256 2.925-.213.335.015.814-.052 1.116-.221.301-.17.29-.27.35-.696.094-.662.11-1.433-.232-2.026-.442-.766-1.073-.644-1.819-.59-.864.065-1.72.3-2.59.287-.305-.005-.47.064-.59-.212-.07-.161-.005-.663-.007-.823a79.807 79.807 0 0 1-.011-1.608c.937.026 1.872-.008 2.78-.071 1.053-.073 1.995.076 2.364-1.092.08-.254.114-.192.15-.504.021-.174.008-.313 0-.497-.022-.51-.058-1.046-.304-1.497-.582-1.066-2.251-.663-3.213-.606.21-.545.351-1.21.625-1.722.285-.533.548-.24 1.07-.357 1.036-.232.583-2.006.472-2.808-.17-1.22-.587-1.307-1.616-1.254-1.186.062-2.377-.076-3.56.07-1.195.147-2.343.397-3.552.44-.793.027-1.972-.295-2.196.75-.188.876-.132 2.411.924 2.549.116.015.405-.06.488-.016.16.084.384.666.484.82.298.453.636.86.856 1.361-.508.071-1.025.246-1.533.29-.462.041-.946-.038-1.413-.022-1.088.036-1.1.763-1.117 1.76-.008.43-.129 1.104.163 1.456.309.374 1.194.453 1.62.504 1.02.123 2.022.144 3.033.2-.076.99-.074 1.985-.065 2.978-.258-.207-.98-.081-1.335-.11a21.3 21.3 0 0 0-1.739-.086c-.937.002-1.857-.15-1.907 1.132-.026.692-.215 2.215.511 2.448.387.123 1.103.05 1.527.088.406.037.815.066 1.224.077.319.01.638.007.957.007.37-.001.47-.093.597.171.203.427.076 1.594.115 2.086.092 1.147-.045 2.269.038 3.414.083 1.166.972 1.527 1.964 1.461.381-.025 1.024-.043 1.268-.403.281-.414.037-1.412-.002-1.868-.018-.208.03.349 0 0" id="Fill-3" fill="#FEFEFE"/><path id="Fill-5" fill="#FEFEFE" d="M2.436 56.67c.007-.01.007-.01 0 0"/><g id="Group-9"><mask id="mask-2" fill="#fff"><use xlink:href="#path-1"/></mask><path d="M3.343 60.414c.301-.75.641-1.481.815-2.284.187-.861-.258-1.094-.964-1.396-.696-.298-1.317.277-1.63.969-.241.534-.472 1.042-.801 1.53-.363.536-1.097 1.2-.59 1.82.328.404 1.14.816 1.654.708.644-.134 1.126-.859 1.516-1.347.027-.068-.041.051 0 0" id="Fill-7" fill="#FEFEFE" mask="url(#mask-2)"/></g><path d="M13.772 61.334c.45-.373.464-1.161.6-1.699.18-.72.363-1.201-.421-1.5-.774-.294-1.498-.467-2.198-.955-.565-.394-1.214-1.165-1.973-.917-.53.173-1.189 1.13-1.072 1.735.063.326.343.451.543.653.233.236.405.462.654.729.5.536 1.03 1.037 1.66 1.394.561.318 1.565 1.09 2.207.56.416-.344-.18.15 0 0" id="Fill-10" fill="#FEFEFE"/><g id="Group-14"><mask id="mask-4" fill="#fff"><use xlink:href="#path-3"/></mask><path d="M18.805 48.926c-.329.024-.933.206-1.09-.15-.1-.227.227-1.651.14-1.714.728-.086 1.542-.06 2.274-.013.158.01.734.01.823.099.134.132.097 1.45.127 1.66-.757.063-1.517.062-2.274.118-.277.02.753-.056 0 0m-1.69-9.67c-.196-.043-.172-.712-.129-.917.101-.474.228-.522.649-.566.735-.077 1.515.005 2.244.08.47.05.475.015.488.55.004.136.09.784.032.854-.06.074-.454.088-.551.107-.977.193-1.766.098-2.733-.109-.03-.006.514.11 0 0m3.443 5.279c.042-.007-.267.183-.271.185-.24.1-.573.083-.827.08-.416-.005-1.337.046-1.718-.211-.476-.322-.081-1.347-.15-1.895a18.474 18.474 0 0 0 1.769-.197c.293-.045.876-.253 1.088-.015.286.321.022 1.623.109 2.053m-6.09-8.834c.003-.035.062-.104 0 0 .002-.012.011-.017 0 0m10.6 21.215c-.67.153-1.17.408-1.063 1.22-1.26-.18-1.534-1.824-2.01-2.887-.281-.625-.52-1.271-.763-1.919-.13-.348-.23-.62-.264-.991-.018-.2.126-.776-.196-.804.064-.13.68-.042.814-.045.483-.011.985.003 1.419-.262.845-.517.778-1.636.885-2.514.17-1.394.033-2.886.002-4.287-.033-1.477-.04-2.95-.02-4.428.016-1.179.291-2.818-.276-3.876-.567-1.056-1.466-1.14-2.5-1.208-1.306-.085-2.6.002-3.903.056-.838.034-1.963-.052-2.626.574-.715.675-.579 1.958-.538 2.84.051 1.134.241 2.283.373 3.385.165 1.381-.08 2.807.066 4.198.13 1.247.22 2.558.447 3.788.157.85.576 1.35 1.415 1.459.546.07 1.033-.02 1.39.524.318.484.27 1.374.186 1.937-.403 2.679-1.892 5.111-3.225 7.359-.28.472-.565.906-.986 1.252-.301.247-1.265.581-.988 1.086.213.39 1.43.507 1.783.722.349.212 1.018.69 1.485.546.431-.132.758-1.262.959-1.713.273-.614.6-1.189.904-1.784.58-1.138 1.266-2.183 1.91-3.276.782 2.635 2.988 3.65 5.447 3.48 1.568-.11 1.36-1.494 1.367-2.788.007-1.181-.263-1.924-1.493-1.644-.349.08.335-.076 0 0" id="Fill-12" fill="#FEFEFE" mask="url(#mask-4)"/></g><path d="M50.295 48.941c-.052-1.291-.65-1.498-1.734-1.578-1.114-.082-2.217-.07-3.334-.07-1.087 0-2.303.16-3.375-.01-.586-.092-.623-.269-.634-.906-.01-.589.03-1.182.18-1.752.523-2.007 2.104-3.499 3.501-4.85.62-.599 1.307-1.292 1.417-2.218.11-.934-.052-1.816-1.016-1.972-1.757-.285-3.694-.207-5.49-.197-2.216.012-4.584-.304-6.85-.068-.799.083-1.159.227-1.479 1.03-.312.78-1.184 2.165-.057 2.59.908.344 2.028-.058 2.967-.067 1.13-.01 2.265.035 3.392.116.323.023 1.193.003 1.47.194.21.144.35.85.316 1.116-.059.438-.533.932-.74 1.313-.26.475-.52.915-.763 1.394-.539 1.062-.472 2.14-.509 3.307-.01.343.104.943-.155 1.184-.355.33-1.539.174-1.983.195-2.09.103-4.296.227-6.382.056-.497-.041-.696-.273-.888.236-.124.328-.055.982-.028 1.345.024.328.055.645.053.992-.003.598-.057.93.583 1.024.937.137 2.043-.014 2.992-.003 1.208.013 2.415.13 3.622.11.584-.01 2.312-.31 2.602.363.175.405.04 1.124.04 1.559.003.566-.045 1.086-.111 1.65-.118 1.011-.199 1.897-.592 2.839-.139.332-.138.446-.433.562-.157.062-.671.063-.816.001-.572-.246-.962-.965-1.605-1.164-.586-.182-1.554.3-1.918.812-.215.305-.296.847-.265 1.224.058.716.612.963 1.13 1.286 1.025.637 1.88 1.34 2.985 1.842.865.393 2.094 1.092 2.958.386.48-.393.524-.852.654-1.452.127-.58.336-1.139.493-1.714.368-1.345.673-2.745.825-4.136.078-.716.118-1.417.167-2.133.032-.468.01-1.091.217-1.532.027-.057.081-.35.133-.382.172-.108.915.042 1.139.04.556-.007 1.113-.014 1.67-.014l4.059-.002c.481 0 1.104-.013 1.424-.481.366-.536.192-1.46.168-2.065-.018-.452.018.45 0 0" id="Fill-15" fill="#FEFEFE"/><g id="Group-19"><mask id="mask-6" fill="#fff"><use xlink:href="#path-5"/></mask><path d="M13.802 10.355c.208-.174.856-.031 1.093-.039.5-.015.997-.054 1.5-.046.617.01 1.624-.184 2.093.343.502.565.28 1.826.297 2.534.01.428-.037.842-.054 1.265-.023.574.107.895-.338 1.26-.545.447-1.45.647-2.117.788-.52.11-1.912.345-2.272-.249-.16-.264-.063-.846-.088-1.16a81.581 81.581 0 0 1-.115-1.578c-.023-.367-.154-3.13 0-3.118.03-.025-.03-.002 0 0m-7.118 6.38c-.522.01-1.012.024-1.526.11-.45.077-.917.197-1.347-.04-.842-.462-.59-1.54-.637-2.355-.051-.89-.412-2.308.182-3.056.4-.505 1.399-.387 1.988-.4.878-.021 1.93-.158 2.773.088.897.262.85 1.088.914 1.984.057.8.437 2.173-.094 2.84-.53.664-1.477.857-2.253.83-.224.003.122.004 0 0m-6.395.676c.085.72.31 1.42.666 2.053.465.825 1.393.864 2.227.864 1.36 0 2.822-.208 4.152-.044.433.053.906.062 1.33.14.751.14.698.86.628 1.518-.079.744-.092 1.43-.045 2.181.056.905-.009 1.818.213 2.702.41 1.625 1.894 1.275 3.174 1.194.689-.043 1.29-.061 1.322-.905.03-.753-.038-1.488-.078-2.235-.043-.81-.118-1.624-.178-2.432-.03-.406-.054-.763 0-1.17.02-.14.014-.4.09-.537.199-.361.336-.235.726-.27 1.482-.129 2.93-.338 4.423-.533.753-.098 1.77-.056 2.354-.538.548-.453.604-1.503.752-2.242.248-1.235.482-2.454.67-3.695.13-.848.05-1.663-.016-2.507-.063-.819.035-1.929-.31-2.685-.631-1.38-2.178-1.387-3.45-1.454-.817-.043-1.635.021-2.453.014-.624-.006-2.078.165-2.54-.346-.401-.444-.165-1.477-.165-2.053 0-.841.024-1.763-.188-2.582-.185-.715-.702-1.242-1.33-1.564-.578-.296-1.71-.34-2.223.078-1.145.932-.755 2.62-.749 3.92.002.528-.054 1.08-.06 1.59-.002.225.157.68.019.887-.226.34-1.755.176-2.185.212-1.835.154-3.76-.488-5.554.173C-.059 7.724.16 9.934.058 11.339c-.15 2.062.179 4.026.23 6.073.006.052 0-.027 0 0" id="Fill-17" fill="#FEFEFE" mask="url(#mask-6)"/></g><path d="M40.637 10.052c.77-.602 1.894-.369 2.764-.29.42.04.84.043 1.262.038.53-.006.847-.146 1.054.364.2.495.098 1.285.093 1.806-.006.597-.015 1.192.002 1.79.025.902.426 2.543-.445 3.08-.626.385-1.564.306-2.257.304-.88-.002-1.955-.084-2.49-.935-.446-.708-.334-2.04-.378-2.879-.042-.791-.31-2.726.395-3.278.16-.125-.14.11 0 0m-8.994.568c.651-.415 1.55-.39 2.285-.426.311-.016 1.014-.163 1.296-.011.276.149.308.858.358 1.232.14 1.036.223 2.132.27 3.177.034.725.222 1.88-.386 2.36-.586.464-1.605.393-2.308.297-.826-.113-1.28-.452-1.588-1.237-.331-.842-.41-1.794-.38-2.696.025-.787-.283-2.227.453-2.696.532-.339-.22.14 0 0m-.002 10.158c.878.051 1.84-.088 2.746-.041.318.016.902-.117 1.034.122.17.309-.016 1.276-.032 1.63-.053 1.136.051 2.245.058 3.382.005.7.038 1.924.71 2.259.693.345 1.675.46 2.436.44.848-.023 1.929-.447 2.222-1.367.289-.908-.034-1.927-.032-2.86.004-1.158.116-2.391-.037-3.54 1.314.011 2.667-.04 3.977-.206.597-.076 1.159-.166 1.76-.17.464-.001 1.025.01 1.474-.131 1.16-.368.914-2.269 1.054-3.267.154-1.093.338-2.18.457-3.282.147-1.35.163-2.705.165-4.064.002-.983.031-2.575-1.053-2.871-.984-.269-2.278-.026-3.297-.006-1.34.027-2.685.07-4.024.006-.464-.022-.63-.07-.71-.594-.074-.491-.003-1.096.018-1.595.04-.97.354-2.565-.196-3.423-.483-.752-1.412-.505-2.156-.614-.978-.143-2.06-.388-2.581.788-.454 1.025-.387 2.523-.404 3.63-.006.4.137 1.325-.05 1.6-.247.362-1.017.178-1.378.178-1.386-.001-2.788-.075-4.171 0-.514.028-1.024.125-1.53.165-.429.034-.778-.015-1.018.432-.614 1.143-.118 2.943.03 4.15.174 1.438.376 2.879.497 4.324.06.734.123 1.471.16 2.207.031.636-.09 1.419.164 2.019.515 1.217 2.739.643 3.707.699.07.004-.76-.044 0 0" id="Fill-20" fill="#FEFEFE"/></g><g id="Page-1"><path d="M.633 79.469c0-.207.167-.383.363-.383h.475c.195 0 .363.176.363.383v13.196l5.95-4.565a.721.721 0 0 1 .447-.177h.81c.28 0 .307.383.084.53l-6.006 4.654 6.732 6.098c.223.206.084.5-.14.5h-.866c-.167 0-.307-.029-.558-.235l-6.453-5.862v5.715c0 .235-.112.383-.363.383H.94c-.196 0-.308-.177-.308-.383V79.469z" id="Fill-1" fill="#FEFEFE"/><path d="M12.505 88.306c0-.206.167-.383.363-.383h.503c.195 0 .363.177.363.383v11.016c0 .236-.112.383-.363.383h-.559c-.195 0-.307-.176-.307-.383V88.306zm-.335-7.129c0-.56.419-1.03.95-1.03.53 0 .95.47.95 1.03 0 .53-.42.972-.95.972a.961.961 0 0 1-.95-.972z" id="Fill-3" fill="#FEFEFE"/><path d="M22.421 98.822c2.43 0 3.632-1.974 3.687-2.092v-6.598s-1.285-1.237-3.324-1.237c-2.57 0-4.385 2.12-4.385 4.92 0 2.739 1.676 5.007 4.022 5.007m.252-11.194c2.123 0 3.435 1.178 3.435 1.178V79.47c0-.206.14-.383.364-.383h.503c.167 0 .335.177.335.383v19.854c0 .206-.168.383-.363.383h-.28c-.223 0-.363-.118-.39-.383l-.085-1.032c-.335.384-1.703 1.709-3.855 1.709-2.905 0-5.167-2.74-5.167-6.186 0-3.476 2.318-6.186 5.503-6.186" id="Fill-5" fill="#FEFEFE"/><path d="M30.913 98.262l.28-.471c.083-.147.307-.207.502-.03.28.236 1.425 1.15 2.99 1.15 1.591 0 2.68-.944 2.68-2.092 0-1.355-1.256-1.915-3.128-2.651-1.983-.737-3.436-1.65-3.436-3.476 0-1.296 1.09-3.064 3.66-3.064 1.48 0 2.597.56 3.156.943a.427.427 0 0 1 .112.56l-.168.323a.365.365 0 0 1-.53.148c-.252-.177-1.37-.825-2.57-.825-1.76 0-2.403 1.09-2.403 1.885 0 1.179 1.006 1.738 2.654 2.357 2.095.824 3.939 1.561 3.939 3.711 0 1.768-1.732 3.27-3.967 3.27-1.9 0-3.045-.825-3.66-1.326-.11-.088-.195-.265-.11-.412" id="Fill-7" fill="#FEFEFE"/><path d="M21.287 13.18c-2.878 0-4.867 1.696-5.84 2.722-1.523-1.785-3.174-2.722-5.544-2.722-2.708 0-4.655 1.606-5.713 2.766l-.72-1.829c-.127-.268-.423-.491-.719-.491H.804c-.465 0-.804.357-.804.848v16.155c0 .447.339.848.804.848h4.444c.423 0 .804-.401.804-.848v-8.568c0-1.83 1.27-3.124 2.962-3.124 1.905 0 2.667 1.562 2.667 3.346v8.346c0 .447.338.848.804.848h4.062c.466 0 .805-.401.805-.848v-8.658c0-1.74 1.354-3.034 2.835-3.034 1.947 0 2.835 1.562 2.835 3.346v8.346c0 .447.339.848.804.848h4.487c.465 0 .804-.401.804-.848v-8.078c0-5.087-2.582-9.371-7.83-9.371" id="Fill-9" fill="#FEFEFE"/><path d="M38.72 13.626h-4.655c-.423 0-.804.357-.804.848v16.155c0 .446.381.848.804.848h4.655c.424 0 .804-.402.804-.848V14.474c0-.491-.38-.848-.804-.848" id="Fill-11" fill="#FEFEFE"/><path d="M36.35 1.13c-1.862 0-3.343 1.607-3.343 3.57 0 1.964 1.481 3.526 3.344 3.526 1.862 0 3.385-1.562 3.385-3.526 0-1.963-1.523-3.57-3.385-3.57" id="Fill-13" fill="#FEFEFE"/><g id="Group-17"><mask id="mask-8" fill="#fff"><use xlink:href="#path-7"/></mask><path d="M73.674 26.166c-1.947 0-3.428-1.606-3.428-3.66 0-2.007 1.481-3.57 3.428-3.57 1.947 0 3.385 1.563 3.385 3.57 0 2.054-1.438 3.66-3.385 3.66M81.884.237h-4.697c-.424 0-.805.402-.805.849v12.942c-.508-.313-2.073-.848-3.512-.848-4.528 0-8.422 3.079-8.422 9.371 0 5.133 3.598 9.373 8.38 9.373a6.972 6.972 0 0 0 3.613-1c.12.314.42.553.746.553h4.698c.423 0 .803-.402.803-.848V1.086c0-.447-.38-.849-.804-.849" id="Fill-15" fill="#FEFEFE" mask="url(#mask-8)"/></g><g id="Group-20"><mask id="mask-10" fill="#fff"><use xlink:href="#path-9"/></mask><path d="M92.716.238h-4.655c-.423 0-.804.401-.804.848v29.543c0 .447.38.848.804.848h4.655c.424 0 .804-.401.804-.848V1.086c0-.447-.38-.848-.804-.848" id="Fill-18" fill="#FEFEFE" mask="url(#mask-10)"/></g><g id="Group-23"><mask id="mask-12" fill="#fff"><use xlink:href="#path-11"/></mask><path d="M103.126 20.052c.17-1.16 1.143-2.097 2.285-2.097 1.1 0 2.158.937 2.244 2.097h-4.53zm2.455-6.873c-4.994 0-8.76 4.33-8.76 9.372 0 5.133 3.808 9.372 8.844 9.372 2.666 0 4.782-.981 6.264-2.544.38-.401.296-.937.042-1.294l-2.116-2.677c-.254-.313-.677-.313-1.059 0-.676.535-1.904 1.07-2.961 1.07-2.201 0-3.132-1.74-3.26-2.945h10.158c.38 0 .761-.312.804-.758.042-.313.084-.893.084-1.205 0-4.91-3.723-8.39-8.04-8.39z" id="Fill-21" fill="#FEFEFE" mask="url(#mask-12)"/></g><g id="Group-26"><mask id="mask-14" fill="#fff"><use xlink:href="#path-13"/></mask><path d="M52.093 26.166c-1.947 0-3.428-1.606-3.428-3.66 0-2.007 1.48-3.57 3.428-3.57 1.946 0 3.385 1.563 3.385 3.57 0 2.054-1.439 3.66-3.385 3.66M60.303.237h-4.698c-.423 0-.804.402-.804.849v12.942c-.508-.313-2.073-.848-3.512-.848-4.529 0-8.422 3.079-8.422 9.371 0 5.133 3.597 9.373 8.38 9.373a6.972 6.972 0 0 0 3.612-1c.121.314.42.553.746.553h4.698c.423 0 .804-.402.804-.848V1.086c0-.447-.38-.849-.804-.849" id="Fill-24" fill="#FEFEFE" mask="url(#mask-14)"/></g><path d="M21.287 49.24c-2.878 0-4.867 1.696-5.84 2.722-1.523-1.785-3.174-2.722-5.544-2.722-2.708 0-4.655 1.606-5.713 2.766l-.72-1.829c-.127-.268-.423-.491-.719-.491H.804c-.465 0-.804.357-.804.848v16.155c0 .447.339.848.804.848h4.444c.423 0 .804-.401.804-.848v-8.568c0-1.83 1.27-3.124 2.962-3.124 1.905 0 2.667 1.562 2.667 3.346v8.346c0 .447.338.848.804.848h4.062c.466 0 .805-.401.805-.848v-8.658c0-1.74 1.354-3.034 2.835-3.034 1.947 0 2.835 1.562 2.835 3.346v8.346c0 .447.339.848.804.848h4.487c.465 0 .804-.401.804-.848v-8.077c0-5.088-2.582-9.372-7.83-9.372" id="Fill-27" fill="#FEFEFE"/><path d="M38.72 49.686h-4.655c-.423 0-.804.357-.804.848v16.155c0 .446.381.848.804.848h4.655c.424 0 .804-.402.804-.848V50.534c0-.491-.38-.848-.804-.848" id="Fill-29" fill="#FEFEFE"/><path d="M36.35 37.19c-1.862 0-3.343 1.607-3.343 3.57 0 1.964 1.481 3.526 3.344 3.526 1.862 0 3.385-1.562 3.385-3.526 0-1.963-1.523-3.57-3.385-3.57" id="Fill-31" fill="#FEFEFE"/><path d="M73.674 62.226c-1.947 0-3.428-1.606-3.428-3.66 0-2.007 1.481-3.57 3.428-3.57 1.947 0 3.385 1.563 3.385 3.57 0 2.054-1.438 3.66-3.385 3.66m8.21-25.929h-4.697c-.424 0-.805.402-.805.849v12.942c-.508-.313-2.073-.848-3.512-.848-4.528 0-8.422 3.079-8.422 9.371 0 5.133 3.598 9.373 8.38 9.373a6.972 6.972 0 0 0 3.613-1c.12.314.42.553.746.553h4.698c.423 0 .803-.402.803-.848V37.146c0-.447-.38-.849-.804-.849" id="Fill-33" fill="#FEFEFE"/><path d="M92.716 36.298h-4.655c-.423 0-.804.401-.804.848v29.543c0 .447.38.848.804.848h4.655c.424 0 .804-.401.804-.848V37.146c0-.447-.38-.848-.804-.848" id="Fill-35" fill="#FEFEFE"/><g id="Group-39"><mask id="mask-16" fill="#fff"><use xlink:href="#path-15"/></mask><path d="M103.126 56.112c.17-1.16 1.143-2.097 2.285-2.097 1.1 0 2.158.937 2.244 2.097h-4.53zm2.455-6.872c-4.994 0-8.76 4.328-8.76 9.371 0 5.133 3.808 9.373 8.844 9.373 2.666 0 4.782-.982 6.264-2.544.38-.402.296-.938.042-1.295l-2.116-2.677c-.254-.313-.677-.313-1.059 0-.676.535-1.904 1.07-2.961 1.07-2.201 0-3.132-1.74-3.26-2.945h10.158c.38 0 .761-.312.804-.758.042-.313.084-.893.084-1.205 0-4.91-3.723-8.39-8.04-8.39z" id="Fill-37" fill="#FEFEFE" mask="url(#mask-16)"/></g><path d="M52.093 62.226c-1.947 0-3.428-1.606-3.428-3.66 0-2.007 1.48-3.57 3.428-3.57 1.946 0 3.385 1.563 3.385 3.57 0 2.054-1.439 3.66-3.385 3.66m8.21-25.929h-4.698c-.423 0-.804.402-.804.849v12.942c-.508-.313-2.073-.848-3.512-.848-4.529 0-8.422 3.079-8.422 9.371 0 5.133 3.597 9.373 8.38 9.373a6.972 6.972 0 0 0 3.612-1c.121.314.42.553.746.553h4.698c.423 0 .804-.402.804-.848V37.146c0-.447-.38-.849-.804-.849" id="Fill-40" fill="#FEFEFE"/></g></g></g></g></svg>