<svg width="354" height="415" viewBox="0 0 354 415" xmlns="http://www.w3.org/2000/svg" xmlns:xlink="http://www.w3.org/1999/xlink"><title>Page 1</title><defs><path id="path-1" d="M.224 11.149l79.543 37.897L87.529.767"/><path id="path-3" d="M.224 11.149l79.543 37.897L87.529.767"/><path id="path-5" d="M.224 11.149l79.543 37.897L87.529.767"/><path id="path-7" d="M.224 11.149l79.543 37.897L87.529.767"/><path id="path-9" d="M.224 11.149l79.543 37.897L87.529.767"/><path id="path-11" d="M.224 11.149l79.543 37.897L87.529.767"/><path id="path-13" d="M.409 53.733l51.267 18.369L48.372.599.409 53.733z"/><path id="path-15" d="M.409 53.733l51.267 18.369L48.372.599"/><path id="path-17" d="M.409 53.733l51.267 18.369L48.372.599"/><path id="path-19" d="M.409 53.733l51.267 18.369L48.372.599"/><path id="path-21" d="M.409 53.733l51.267 18.369L48.372.599"/><path id="path-23" d="M.409 53.733l51.267 18.369L48.372.599"/><path id="path-25" d="M.409 53.733l51.267 18.369L48.372.599"/><path id="path-27" d="M0 .324h353.196V415H0"/></defs><g id="Page-1" fill="none" fill-rule="evenodd"><g id="Desktop-HD" transform="translate(-831 -875)"><g id="Group" transform="translate(-311 684)"><g id="Page-1" transform="translate(1142 191)"><path d="M105.225 366.149l79.542 37.897 7.762-48.279-87.304 10.382z" id="Fill-1" fill="#E0E0E0"/><path d="M105.224 366.149l79.543 37.897 7.762-48.28-87.305 10.383z" id="Fill-2" fill="#E0E0E0"/><g id="Group-21" transform="translate(105 355)"><g id="Group-5"><mask id="mask-2" fill="#fff"><use xlink:href="#path-1"/></mask><path d="M60.935 39.73c-4.383.62-8.954-.28-10.174-1.991-1.2-1.685 1.325-3.51 5.6-4.096 4.255-.584 8.729.264 10.036 1.916 1.325 1.676-1.101 3.553-5.462 4.17" id="Fill-3" fill="#E0E0E0" mask="url(#mask-2)"/></g><g id="Group-8"><mask id="mask-4" fill="#fff"><use xlink:href="#path-3"/></mask><path d="M81.675 33.496c-4.204.586-8.73-.265-10.072-1.881-1.32-1.593.967-3.32 5.073-3.875 4.086-.553 8.514.25 9.934 1.813 1.439 1.586-.751 3.36-4.935 3.943" id="Fill-6" fill="#E0E0E0" mask="url(#mask-4)"/></g><g id="Group-11"><mask id="mask-6" fill="#fff"><use xlink:href="#path-5"/></mask><path d="M58.279 29.798c-4.195.566-8.553-.256-9.702-1.818-1.131-1.54 1.3-3.21 5.396-3.746 4.077-.534 8.347.242 9.576 1.753 1.246 1.533-1.096 3.248-5.27 3.81" id="Fill-9" fill="#E0E0E0" mask="url(#mask-6)"/></g><g id="Group-14"><mask id="mask-8" fill="#fff"><use xlink:href="#path-7"/></mask><path d="M81.98 20.54c-3.952.518-8.209-.234-9.478-1.664-1.249-1.411.898-2.94 4.762-3.433 3.847-.49 8.02.22 9.356 1.607 1.354 1.405-.706 2.974-4.64 3.49" id="Fill-12" fill="#E0E0E0" mask="url(#mask-8)"/></g><g id="Group-17"><mask id="mask-10" fill="#fff"><use xlink:href="#path-9"/></mask><path d="M56.239 20.103c-4.009.517-8.162-.233-9.248-1.657-1.069-1.405 1.265-2.928 5.184-3.418 3.901-.489 7.974.221 9.134 1.6 1.174 1.398-1.08 2.961-5.07 3.475" id="Fill-15" fill="#E0E0E0" mask="url(#mask-10)"/></g><g id="Group-20"><mask id="mask-12" fill="#fff"><use xlink:href="#path-11"/></mask><path d="M30.758 25.237c-4.176.543-8.338-.245-9.267-1.741-.914-1.475 1.676-3.075 5.754-3.59 4.059-.513 8.142.232 9.154 1.68 1.025 1.469-1.485 3.111-5.641 3.651" id="Fill-18" fill="#E0E0E0" mask="url(#mask-12)"/></g></g><g id="Group-60" transform="translate(0 286)" fill="#E0E0E0"><path d="M183.504 129c-13.426 0-23.592-4.695-22.74-10.241.813-5.294 11.452-9.414 23.795-9.414 12.342 0 22.539 4.12 22.784 9.414.257 5.546-10.413 10.241-23.84 10.241" id="Fill-22"/><path d="M209.532 70.362s18.494-1.184 28.076-1.866c9.512-.676 12.174-3.006 3.367-4.495-8.658-1.465-30.21-4.554-30.21-4.554s-2.948-1.072-6.296 5.371c-2.772 5.33-4.418 5.746 5.063 5.544" id="Fill-24"/><path d="M240.663 23.09s5.066 2.775 7.93 4.27c2.93 1.528 6.416 2.174 9.576.47 2.465-1.33 6.337-4.952 6.337-4.952s-.813-.557-14.248-.78c-10.368-.172-11.368-.394-9.595.992" id="Fill-26"/><path d="M275.097 24.148s3.269 2.987 5.168 4.607c1.953 1.659 5.076 2.495 9.47 1.022 3.44-1.151 9.922-4.473 9.922-4.473s-.456-.593-14.12-1.576c-10.44-.753-11.301-1.026-10.44.42" id="Fill-28"/><path d="M310.666 27.252s1.431 2.765 2.323 4.268c.912 1.535 3.343 2.412 8.18 1.349 3.807-.837 11.666-3.434 11.666-3.434s-.1-.547-12.289-2.061c-9.262-1.152-9.915-1.432-9.88-.122" id="Fill-30"/><path d="M214.98 56.573s17.764-.474 25.952-1.597c8.7-1.193 9.987-2.869-.556-4.406-8.115-1.185-24.549-3.385-24.549-3.385s-2.766-.927-5.69 4.631c-2.41 4.573-3.924 4.932 4.843 4.757" id="Fill-32"/><path d="M211.969 28.61s14.873-.331 21.765-1.118c7.339-.838 8.492-2.02-.311-3.106-6.793-.84-20.6-2.403-20.6-2.403s-2.322-.661-4.853 3.285c-2.066 3.214-3.336 3.465 3.999 3.343" id="Fill-34"/><path d="M218.156 45.743s13.647-.34 19.952-1.152c6.722-.864 13.022-2.19 4.867-3.31-6.303-.865-24.295-2.379-24.295-2.379s-2.171-.686-4.341 3.396c-1.761 3.313-2.915 3.57 3.817 3.445" id="Fill-36"/><path d="M204.083 72.081S129.618 86.66 46.054 89.28c-12.709 4.171-25.73 8.955-37.446 4.597C-2.624 89.69-3.827 63.583 10.77 57.702c13.658-5.505 104.61-12.946 104.61-12.946s-8.026-16.936-6.683-27.107c1.16-8.813 6.715-16.26 6.715-16.26S116.95.084 128.767.15c11.83.064 12.14 1.372 12.14 1.372l-1.134 3.713h58.354l.583-3.713s1.22-1.57 12.773-1.374c11.596.196 11.565 1.441 11.565 1.441l-1.183 6.505c6.97-.148 35.085.074 58.535 3.183 24.668 3.271 49.187 9.628 63.763 14.001 15.548 4.665 11.82 8.888-17.418 3.444-27.177-5.059-82.874-7.275-107.195-6.635.473 2.807-.564 39.34-15.467 49.995" id="Fill-38"/><path d="M115.537 37.158s-34.396-1.456-37.98-4.604c-3.436-3.021 5.71-5.624 15.82-5.23 10.166.396 26.072 2.516 26.072 2.516l-3.912 7.318z" id="Fill-40"/><path d="M212.352 38.872l-.898-8.724s8.14-1.879 24.332-2.378c16.071-.497 23.918 4.676 13.803 6.612-10.38 1.988-37.237 4.49-37.237 4.49" id="Fill-42"/><path d="M124.297 16.742c-2.451 4.45 11.084 8.281 30.387 8.281 19.306 0 35.144-3.832 35.365-8.28.207-4.167-13.528-7.355-30.67-7.355-17.138 0-32.787 3.188-35.082 7.354" id="Fill-44"/><path d="M133.327 73.98c-.887 2.642 4.74 4.838 12.593 4.838 7.85 0 14.629-2.196 15.127-4.837.483-2.566-5.188-4.6-12.654-4.6-7.47 0-14.206 2.034-15.066 4.6" id="Fill-46"/><path d="M145.508 72.595c-.34 1.244 2.383 2.264 6.086 2.264 3.705 0 6.915-1.02 7.166-2.264.248-1.228-2.485-2.212-6.102-2.212-3.616 0-6.815.984-7.15 2.212" id="Fill-48"/><path d="M106.834 76.763c-1.053 2.241 3.385 4.096 9.93 4.096 6.556 0 12.504-1.855 13.284-4.096.762-2.19-3.718-3.929-10.005-3.929-6.277 0-12.181 1.739-13.21 3.929" id="Fill-50"/><path d="M117.21 75.58c-.442 1.06 1.71 1.926 4.813 1.926 3.096 0 5.922-.866 6.303-1.926.375-1.046-1.787-1.888-4.821-1.888-3.042 0-5.857.842-6.294 1.888" id="Fill-52"/><path d="M28.32 66.19c-.767.822.655 1.494 3.187 1.494 2.53 0 5.172-.672 5.897-1.495.719-.815-.72-1.47-3.21-1.47s-5.115.655-5.874 1.47" id="Fill-54"/><path d="M8.627 66.19c-.856.822.494 1.494 3.028 1.494 2.524 0 5.24-.672 6.056-1.495.808-.815-.562-1.47-3.045-1.47-2.493 0-5.191.655-6.04 1.47" id="Fill-56"/><path d="M121.359 56.673c1.773.71 1.14 1.813-1.45 2.476-2.603.665-6.178.616-7.957-.107-.095-.038-9.696-3.866-30.796-6.398-13.55-1.624-29.868-1.018-30.185-1.006-1.254.05-2.35-.031-3.191-.197a1482.898 1482.898 0 0 1 26.034-2.851c4.27.19 8.777.505 13.135 1.017 23.316 2.733 33.956 6.888 34.41 7.066" id="Fill-58"/></g><g id="Group-82" transform="translate(140 12)"><g id="Group-63"><mask id="mask-14" fill="#fff"><use xlink:href="#path-13"/></mask><path d="M.41 53.732l51.266 18.37L48.372.598.41 53.732z" id="Fill-61" fill="#042A46" mask="url(#mask-14)"/></g><g id="Group-66"><mask id="mask-16" fill="#fff"><use xlink:href="#path-15"/></mask><path d="M38.462 11.988a4.232 4.232 0 0 0-5.41 2.559 4.232 4.232 0 1 0 5.411-2.559" id="Fill-64" fill="#83BC32" mask="url(#mask-16)"/></g><g id="Group-69"><mask id="mask-18" fill="#fff"><use xlink:href="#path-17"/></mask><path d="M48.963 20.155a4.232 4.232 0 1 0-2.853 7.97 4.232 4.232 0 0 0 2.853-7.97" id="Fill-67" fill="#83BC32" mask="url(#mask-18)"/></g><g id="Group-72"><mask id="mask-20" fill="#fff"><use xlink:href="#path-19"/></mask><path d="M36.303 25.225a4.232 4.232 0 1 0-2.853 7.97 4.232 4.232 0 0 0 2.853-7.97" id="Fill-70" fill="#83BC32" mask="url(#mask-20)"/></g><g id="Group-75"><mask id="mask-22" fill="#fff"><use xlink:href="#path-21"/></mask><path d="M48.803 38.725a4.232 4.232 0 1 0-2.853 7.97 4.232 4.232 0 0 0 2.853-7.97" id="Fill-73" fill="#83BC32" mask="url(#mask-22)"/></g><g id="Group-78"><mask id="mask-24" fill="#fff"><use xlink:href="#path-23"/></mask><path d="M34.303 39.392a4.232 4.232 0 0 0-5.411 2.558 4.232 4.232 0 1 0 5.411-2.558" id="Fill-76" fill="#83BC32" mask="url(#mask-24)"/></g><g id="Group-81"><mask id="mask-26" fill="#fff"><use xlink:href="#path-25"/></mask><path d="M20.803 31.726a4.232 4.232 0 1 0-2.854 7.968 4.232 4.232 0 0 0 2.854-7.968" id="Fill-79" fill="#83BC32" mask="url(#mask-26)"/></g></g><g id="Group-122"><g id="Group-85"><mask id="mask-28" fill="#fff"><use xlink:href="#path-27"/></mask><path d="M188.04.324c-6.319 0-11.442 5.123-11.442 11.44 0 6.32 5.123 11.443 11.441 11.443 6.318 0 11.441-5.123 11.441-11.442 0-6.318-5.123-11.441-11.44-11.441" id="Fill-83" fill="#83BC32" mask="url(#mask-28)"/></g><path d="M202.225 82.993s11.59 2.213 17.665 3.5c6.074 1.287 8.18 5.794 2.809 8.734-5.37 2.943-19.158 9.31-19.158 9.31s-1.895 2.262-4.303-10.93c-1.867-10.217-2.893-10.988 2.987-10.614" id="Fill-86" fill="#17AA8F"/><path d="M230.921 200.968s3.41-9.12 5.302-13.889c1.892-4.769 4.47-6.753 7.571-1.478 2.472 4.205 7.076 16.078 7.076 16.078s-.45 1.881-11.632 2.637c-8.653.59-9.435 1.346-8.317-3.348" id="Fill-88" fill="#17AA8F"/><path d="M259.107 197.447s1.275-9.657 2.046-14.726c.777-5.073 2.845-7.586 7.049-3.14 3.35 3.54 10.503 14.079 10.503 14.079s-.015 1.935-10.744 5.178c-8.3 2.517-8.888 3.436-8.854-1.391" id="Fill-90" fill="#042A46"/><path d="M286.445 187.42s-.632-8.566-.875-13.09c-.243-4.522 1.096-7.065 5.524-3.979 3.533 2.46 11.603 10.278 11.603 10.278s.334 1.68-8.35 6.407c-6.724 3.662-7.07 4.561-7.902.385" id="Fill-92" fill="#17AA8F"/><path d="M206.523 110.668s11.968 1.03 17.666 3.497c6.138 2.653 7.387 6.448.415 9.997-5.455 2.779-16.764 8.049-16.764 8.049s-1.893 2.264-4.301-10.932c-1.867-10.211-2.896-10.99 2.984-10.611" id="Fill-94" fill="#042A46"/><path d="M206.523 183.168s11.968 1.03 17.666 3.497c6.138 2.653 7.387 6.448.415 9.997-5.455 2.779-16.764 8.049-16.764 8.049s-1.893 2.264-4.301-10.932c-1.867-10.211-2.896-10.99 2.984-10.611" id="Fill-96" fill="#042A46"/><path d="M209.628 135.744s9.814.846 14.485 2.869c5.033 2.178 9.93 5.569 4.217 8.477-4.473 2.275-17.622 6.319-17.622 6.319s-1.555 1.858-3.53-8.962c-1.53-8.377-2.373-9.012 2.45-8.703" id="Fill-98" fill="#17AA8F"/><path d="M198.804 79.83s-42.757-24.65-89.26-28.707c-5.304-6.246-10.296-13.11-18.724-6.871-8.424 6.244-25.593 51.81-20.286 63.982 5.305 12.172 65.227 29.964 65.227 29.964s-13.42 47.435-17.788 81.765c-4.37 34.33-4.058 67.414-4.058 67.414s.623 6.24 12.485 5.93c11.858-.312 12.796-6.555 12.796-6.555l.622-16.971h55.864l.624 16.97s1.25 7.512 12.797 6.563c11.549-.944 11.234-6.875 11.234-6.875l-2.495-29.024c6.554.626 32.77-.312 52.745-13.108 19.973-12.795 36.2-35.89 44.629-50.56 8.427-14.667 1.873-27.151-16.851-10.922-18.73 16.23-64.294 23.72-84.89 21.532 0-9.36-4.683-103.925-14.671-124.527" id="Fill-100" fill="#83BC32"/><path d="M132.951 158.169s-26.84 4.058-31.52 13.105c-4.68 9.053.938 17.166 9.364 15.917 8.425-1.245 22.156-7.8 22.156-7.8v-21.222z" id="Fill-102" fill="#83BC32"/><path d="M205.984 153.49v24.964s6.689 5.776 19.799 7.335c13.104 1.564 17.649-14.2 9.222-19.817-8.423-5.62-29.021-12.482-29.021-12.482" id="Fill-104" fill="#83BC32"/><path d="M131.07 223.285c0-15.86 12.855-28.712 28.712-28.712 15.858 0 28.713 12.853 28.713 28.712S175.64 252 159.781 252c-15.857 0-28.71-12.856-28.71-28.715" id="Fill-106" fill="#F3AB1D"/><path d="M155.736 76.402a8.428 8.428 0 0 1 16.855 0c0 4.648-3.775 8.424-8.428 8.424-4.655 0-8.428-3.776-8.428-8.424" id="Fill-108" fill="#FFF"/><path d="M162.912 78.896a4.058 4.058 0 1 1 8.118.002 4.058 4.058 0 0 1-8.118-.002" id="Fill-110" fill="#042A46"/><path d="M140.421 71.504a6.954 6.954 0 0 1 6.953-6.958 6.953 6.953 0 0 1 6.956 6.957 6.955 6.955 0 1 1-13.909 0" id="Fill-112" fill="#FFF"/><path d="M146.343 73.568a3.35 3.35 0 0 1 3.353-3.35 3.35 3.35 0 0 1 0 6.7 3.352 3.352 0 0 1-3.353-3.35" id="Fill-114" fill="#042A46"/><path d="M87.476 90.922a2.88 2.88 0 1 1 5.762 0 2.882 2.882 0 1 1-5.762 0" id="Fill-116" fill="#042A46"/><path d="M74.986 90.922a2.88 2.88 0 1 1 5.761 0 2.882 2.882 0 0 1-5.762 0" id="Fill-118" fill="#042A46"/><path d="M143.833 110.452a3.75 3.75 0 0 0-.238-5.288 3.75 3.75 0 0 0-5.286.226c-.076.08-7.824 8.334-23.256 14-10.159 3.726-21.09 2.327-21.302 2.299a3.722 3.722 0 0 0-2.323.454c5.261 2.353 10.972 4.629 16.497 6.687 3.098-.455 6.415-1.2 9.708-2.412 17.271-6.336 25.844-15.58 26.2-15.966" id="Fill-120" fill="#042A46"/></g></g></g></g></g></svg>