<svg width="1444" height="187" viewBox="0 0 1444 187" xmlns="http://www.w3.org/2000/svg"><title>ranbowflag</title><g id="Page-1" fill="none" fill-rule="evenodd"><g id="Desktop-HD" transform="translate(0 -697)"><g transform="rotate(-3 14913.577 6332.474)" id="Group"><g id="Page-1" transform="translate(0 76)"><path d="M.95 2.572h499.074c.563 0 1.014-.413 1.014-.923 0-.512-.45-.926-1.014-.926H.95a.994.994 0 0 0-.949.64v.57c.133.369.5.639.95.639" id="Fill-1" fill="#0798B0"/><path d="M317.696 35L333.262.232H302.13L317.696 35z" id="Fill-21" fill="#0798B0"/><path d="M350.97 35L366.537.232h-31.13L350.97 35z" id="Fill-23" fill="#ADAD3D"/><path d="M417.521 35L433.085.232h-31.126L417.521 35z" id="Fill-25" fill="#ED4000"/><path d="M450.798 35L466.361.232h-31.129L450.798 35z" id="Fill-27" fill="#0798B0"/><path d="M484.073 35L499.636.232h-31.128L484.073 35z" id="Fill-29" fill="#ADAD3D"/><path d="M384.247 35L399.812.232h-31.13L384.247 35z" id="Fill-31" fill="#042A46"/></g><g id="Page-1-Copy" transform="translate(502 76)"><path d="M.95 2.572h499.074c.563 0 1.014-.413 1.014-.923 0-.512-.45-.926-1.014-.926H.95a.994.994 0 0 0-.949.64v.57c.133.369.5.639.95.639" id="Fill-1" fill="#0798B0"/><path d="M18.218 35L33.782.232H2.654L18.218 35z" id="Fill-3" fill="#042A46"/><path d="M51.494 35L67.057.232H35.928L51.494 35z" id="Fill-5" fill="#0798B0"/><path d="M84.769 35L100.332.232H69.205L84.769 35z" id="Fill-7" fill="#ADAD3D"/><path d="M118.045 35L133.605.232H102.48L118.045 35z" id="Fill-9" fill="#ED4000"/><path d="M151.32 35L166.885.232h-31.13L151.32 35z" id="Fill-11" fill="#042A46"/><path d="M184.592 35L200.16.232h-31.13L184.591 35z" id="Fill-13" fill="#0798B0"/><path d="M217.87 35L233.436.232h-31.131L217.87 35z" id="Fill-15" fill="#ADAD3D"/><path d="M251.144 35L266.709.232H235.58L251.144 35z" id="Fill-17" fill="#ED4000"/><path d="M284.419 35L299.984.232h-31.129L284.419 35z" id="Fill-19" fill="#042A46"/><path d="M317.696 35L333.262.232H302.13L317.696 35z" id="Fill-21" fill="#0798B0"/><path d="M350.97 35L366.537.232h-31.13L350.97 35z" id="Fill-23" fill="#ADAD3D"/><path d="M417.521 35L433.085.232h-31.126L417.521 35z" id="Fill-25" fill="#ED4000"/><path d="M450.798 35L466.361.232h-31.129L450.798 35z" id="Fill-27" fill="#0798B0"/><path d="M484.073 35L499.636.232h-31.128L484.073 35z" id="Fill-29" fill="#ADAD3D"/><path d="M384.247 35L399.812.232h-31.13L384.247 35z" id="Fill-31" fill="#042A46"/></g><g id="Page-1-Copy-2" transform="translate(1004 76)"><path d="M500.024 2.572c.563 0 1.014-.413 1.014-.923 0-.512-.45-.926-1.014-.926H.95a.994.994 0 0 0-.949.64v.57c.133.369.5.639.95.639h499.074z" id="Fill-1" fill="#0798B0"/><path d="M18.218 35L33.782.232H2.654L18.218 35z" id="Fill-3" fill="#042A46"/><path d="M51.494 35L67.057.232H35.928L51.494 35z" id="Fill-5" fill="#0798B0"/><path d="M84.769 35L100.332.232H69.205L84.769 35z" id="Fill-7" fill="#ADAD3D"/><path d="M118.045 35L133.605.232H102.48L118.045 35z" id="Fill-9" fill="#ED4000"/><path d="M151.32 35L166.885.232h-31.13L151.32 35z" id="Fill-11" fill="#042A46"/><path d="M184.592 35L200.16.232h-31.13L184.591 35z" id="Fill-13" fill="#0798B0"/><path d="M217.87 35L233.436.232h-31.131L217.87 35z" id="Fill-15" fill="#ADAD3D"/><path d="M251.144 35L266.709.232H235.58L251.144 35z" id="Fill-17" fill="#ED4000"/><path d="M284.419 35L299.984.232h-31.129L284.419 35z" id="Fill-19" fill="#042A46"/><path d="M317.696 35L333.262.232H302.13L317.696 35z" id="Fill-21" fill="#0798B0"/><path d="M350.97 35L366.537.232h-31.13L350.97 35z" id="Fill-23" fill="#ADAD3D"/><path d="M417.521 35L433.085.232h-31.126L417.521 35z" id="Fill-25" fill="#ED4000"/><path d="M450.798 35L466.361.232h-31.129L450.798 35z" id="Fill-27" fill="#0798B0"/><path d="M484.073 35L499.636.232h-31.128L484.073 35z" id="Fill-29" fill="#ADAD3D"/><path d="M384.247 35L399.812.232h-31.13L384.247 35z" id="Fill-31" fill="#042A46"/></g><g id="Page-1-Copy-3" transform="translate(1506 76)"><path d="M.95 2.572h499.074c.563 0 1.014-.413 1.014-.923 0-.512-.45-.926-1.014-.926H.95a.994.994 0 0 0-.949.64v.57c.133.369.5.639.95.639" id="Fill-1" fill="#0798B0"/><path d="M18.218 35L33.782.232H2.654L18.218 35z" id="Fill-3" fill="#042A46"/><path d="M51.494 35L67.057.232H35.928L51.494 35z" id="Fill-5" fill="#0798B0"/><path d="M84.769 35L100.332.232H69.205L84.769 35z" id="Fill-7" fill="#ADAD3D"/><path d="M118.045 35L133.605.232H102.48L118.045 35z" id="Fill-9" fill="#ED4000"/><path d="M151.32 35L166.885.232h-31.13L151.32 35z" id="Fill-11" fill="#042A46"/><path d="M184.592 35L200.16.232h-31.13L184.591 35z" id="Fill-13" fill="#0798B0"/><path d="M217.87 35L233.436.232h-31.131L217.87 35z" id="Fill-15" fill="#ADAD3D"/><path d="M251.144 35L266.709.232H235.58L251.144 35z" id="Fill-17" fill="#ED4000"/></g></g></g></g></svg>