<svg width="1440" height="93" viewBox="0 0 1440 93" xmlns="http://www.w3.org/2000/svg"><title>shadow</title><g id="Page-1" fill="none" fill-rule="evenodd"><g id="Desktop-HD" transform="translate(0 -1150)" fill="#DDD"><g id="shadow-+-shadow" transform="translate(-307 1137)"><g id="shadow" transform="rotate(-3 2006.624 52.545)"><g id="Page-1"><path d="M.95 1.25h499.074c.563 0 1.014-.201 1.014-.45 0-.248-.45-.449-1.014-.449H.95C.5.351.133.483 0 .661V.94c.133.179.5.31.95.31" id="Fill-1"/><path d="M317.696 17L333.262.113H302.13L317.696 17z" id="Fill-21"/><path d="M350.97 17L366.537.113h-31.13L350.97 17z" id="Fill-23"/><path d="M417.521 17L433.085.113h-31.126L417.521 17z" id="Fill-25"/><path d="M450.798 17L466.361.113h-31.129L450.798 17z" id="Fill-27"/><path d="M484.073 17L499.636.113h-31.128L484.073 17z" id="Fill-29"/><path d="M384.247 17L399.812.113h-31.13L384.247 17z" id="Fill-31"/></g><g id="Page-1-Copy" transform="translate(502)"><path d="M.95 1.25h499.074c.563 0 1.014-.201 1.014-.45 0-.248-.45-.449-1.014-.449H.95C.5.351.133.483 0 .661V.94c.133.179.5.31.95.31" id="Fill-1"/><path d="M18.218 17L33.782.113H2.654L18.218 17z" id="Fill-3"/><path d="M51.494 17L67.057.113H35.928L51.494 17z" id="Fill-5"/><path d="M84.769 17L100.332.113H69.205L84.769 17z" id="Fill-7"/><path d="M118.045 17L133.605.113H102.48L118.045 17z" id="Fill-9"/><path d="M151.32 17L166.885.113h-31.13L151.32 17z" id="Fill-11"/><path d="M184.592 17L200.16.113h-31.13L184.591 17z" id="Fill-13"/><path d="M217.87 17L233.436.113h-31.131L217.87 17z" id="Fill-15"/><path d="M251.144 17L266.709.113H235.58L251.144 17z" id="Fill-17"/><path d="M284.419 17L299.984.113h-31.129L284.419 17z" id="Fill-19"/><path d="M317.696 17L333.262.113H302.13L317.696 17z" id="Fill-21"/><path d="M350.97 17L366.537.113h-31.13L350.97 17z" id="Fill-23"/><path d="M417.521 17L433.085.113h-31.126L417.521 17z" id="Fill-25"/><path d="M450.798 17L466.361.113h-31.129L450.798 17z" id="Fill-27"/><path d="M484.073 17L499.636.113h-31.128L484.073 17z" id="Fill-29"/><path d="M384.247 17L399.812.113h-31.13L384.247 17z" id="Fill-31"/></g><g id="Page-1-Copy-2" transform="translate(1004)"><path d="M.95 1.25h499.074c.563 0 1.014-.201 1.014-.45 0-.248-.45-.449-1.014-.449H.95C.5.351.133.483 0 .661V.94c.133.179.5.31.95.31" id="Fill-1"/><path d="M18.218 17L33.782.113H2.654L18.218 17z" id="Fill-3"/><path d="M51.494 17L67.057.113H35.928L51.494 17z" id="Fill-5"/><path d="M84.769 17L100.332.113H69.205L84.769 17z" id="Fill-7"/><path d="M118.045 17L133.605.113H102.48L118.045 17z" id="Fill-9"/><path d="M151.32 17L166.885.113h-31.13L151.32 17z" id="Fill-11"/><path d="M184.592 17L200.16.113h-31.13L184.591 17z" id="Fill-13"/><path d="M217.87 17L233.436.113h-31.131L217.87 17z" id="Fill-15"/><path d="M251.144 17L266.709.113H235.58L251.144 17z" id="Fill-17"/><path d="M284.419 17L299.984.113h-31.129L284.419 17z" id="Fill-19"/><path d="M317.696 17L333.262.113H302.13L317.696 17z" id="Fill-21"/><path d="M350.97 17L366.537.113h-31.13L350.97 17z" id="Fill-23"/><path d="M417.521 17L433.085.113h-31.126L417.521 17z" id="Fill-25"/><path d="M450.798 17L466.361.113h-31.129L450.798 17z" id="Fill-27"/><path d="M484.073 17L499.636.113h-31.128L484.073 17z" id="Fill-29"/><path d="M384.247 17L399.812.113h-31.13L384.247 17z" id="Fill-31"/></g><g id="Page-1-Copy-3" transform="translate(1506)"><path d="M.95 1.25h499.074c.563 0 1.014-.201 1.014-.45 0-.248-.45-.449-1.014-.449H.95C.5.351.133.483 0 .661V.94c.133.179.5.31.95.31" id="Fill-1"/><path d="M18.218 17L33.782.113H2.654L18.218 17z" id="Fill-3"/><path d="M51.494 17L67.057.113H35.928L51.494 17z" id="Fill-5"/><path d="M84.769 17L100.332.113H69.205L84.769 17z" id="Fill-7"/><path d="M118.045 17L133.605.113H102.48L118.045 17z" id="Fill-9"/><path d="M151.32 17L166.885.113h-31.13L151.32 17z" id="Fill-11"/><path d="M184.592 17L200.16.113h-31.13L184.591 17z" id="Fill-13"/><path d="M217.87 17L233.436.113h-31.131L217.87 17z" id="Fill-15"/><path d="M251.144 17L266.709.113H235.58L251.144 17z" id="Fill-17"/></g></g></g></g></g></svg>