<svg width="150" height="60" viewBox="0 0 150 60" xmlns="http://www.w3.org/2000/svg"><title>Page 1</title><g transform="translate(6 11)" fill="#000" id="Page-1" fill-rule="evenodd"><path d="M78.264 1.176c-.239.136-.514.23-.74.382-.483.325-.486.259-.328.785.189.63.684 1.194.932 1.823.165.42.402 1.795.725 1.935.378.163 1.591-.728 1.956-.877.428-.176.918-.22 1.126-.69.248-.559-.04-1.586-.228-2.125-.158-.458-.567-1.402-1.035-1.647-.633-.33-1.826.219-2.408.414-.034.02.77-.258 0 0" id="Fill-1"/><path d="M78.716 11.153c.265-.43 1.783-.11 2.251-.103 1.037.016.784.333.437 1.281-.32.872-.718 1.911-1.588 1.004-.18-.187-1.33-2.086-1.1-2.182.075-.12-.018.008 0 0m3.013 22.076c-.115-1.269-.132-2.548-.147-3.82-.006-.478-.172-1.725.075-2.146.22-.376 1.087-.257 1.623-.317 1.298-.148 2.617-.319 3.847-.266.441.02 1.07-.063 1.469-.275.395-.21.38-.336.46-.866.123-.824.144-1.783-.305-2.521-.582-.953-1.412-.802-2.393-.733-1.137.079-2.263.372-3.407.355-.4-.005-.619.08-.776-.263-.092-.2-.006-.826-.01-1.025a97.278 97.278 0 0 1-.014-2.002c1.233.034 2.464-.01 3.658-.088 1.384-.09 2.622.095 3.108-1.36.106-.315.15-.238.198-.626.028-.217.01-.39 0-.619-.03-.634-.077-1.303-.4-1.862-.765-1.328-2.961-.827-4.227-.756.278-.678.463-1.506.823-2.143.375-.664.72-.3 1.406-.445 1.364-.288.768-2.496.621-3.495-.222-1.518-.772-1.627-2.124-1.56-1.56.077-3.126-.096-4.683.086-1.57.183-3.082.495-4.672.548-1.042.034-2.592-.367-2.888.933-.247 1.092-.173 3.002 1.215 3.174.154.018.533-.075.642-.02.211.104.506.83.637 1.02.392.563.836 1.071 1.126 1.695-.668.089-1.349.305-2.016.361-.609.05-1.245-.048-1.86-.028-1.429.045-1.444.95-1.468 2.19-.01.535-.169 1.374.214 1.813.407.466 1.572.564 2.13.628 1.344.153 2.661.179 3.99.249-.1 1.232-.097 2.47-.085 3.706-.34-.257-1.29-.101-1.757-.136-.77-.057-1.51-.11-2.286-.108-1.232.002-2.442-.185-2.508 1.41-.035.86-.283 2.757.672 3.046.508.154 1.451.062 2.007.11.536.046 1.073.082 1.611.096.42.011.84.009 1.259.008.487 0 .618-.116.784.214.268.53.101 1.983.153 2.596.12 1.427-.06 2.824.048 4.25.11 1.45 1.28 1.9 2.584 1.818.502-.031 1.347-.054 1.668-.501.37-.516.049-1.759-.002-2.325-.024-.26.039.433 0 0" id="Fill-3"/><path d="M74.072 28.047c.009-.012.01-.013 0 0" id="Fill-5"/><path d="M75.265 32.707c.396-.934.844-1.844 1.073-2.843.245-1.073-.34-1.362-1.268-1.738-.916-.371-1.733.344-2.144 1.206-.318.665-.621 1.297-1.055 1.904-.477.667-1.442 1.494-.775 2.267.432.502 1.499 1.014 2.176.88.846-.167 1.48-1.069 1.993-1.676.036-.086-.054.063 0 0" id="Fill-7"/><path d="M88.981 33.852c.594-.464.61-1.446.789-2.114.238-.896.48-1.496-.553-1.867-1.018-.367-1.97-.582-2.89-1.19-.744-.49-1.598-1.45-2.596-1.141-.696.215-1.563 1.407-1.41 2.16.084.405.452.561.715.812.307.294.532.575.86.908.657.667 1.353 1.29 2.183 1.735.738.396 2.058 1.357 2.902.697.548-.428-.237.186 0 0" id="Fill-9"/><path d="M95.6 18.407c-.43.03-1.226.257-1.432-.187-.13-.282.3-2.055.184-2.133.958-.107 2.028-.075 2.99-.016.208.013.966.013 1.083.122.176.165.127 1.807.168 2.068-.996.077-1.996.076-2.992.146-.364.026.99-.07 0 0M93.378 6.37c-.257-.051-.225-.885-.168-1.14.132-.59.3-.65.852-.705.968-.095 1.993.007 2.951.1.619.062.626.02.643.685.005.17.117.976.041 1.064-.079.092-.596.109-.724.133-1.285.24-2.323.121-3.595-.137-.039-.007.677.138 0 0m4.529 6.571c.055-.009-.35.228-.357.23-.316.125-.753.104-1.087.1-.547-.006-1.758.057-2.26-.263-.626-.4-.107-1.676-.197-2.358a25.82 25.82 0 0 0 2.327-.246c.384-.056 1.152-.315 1.43-.019.377.4.03 2.022.144 2.556M89.898 1.944c.004-.043.081-.13 0 0 .001-.014.014-.022 0 0m13.942 26.408c-.883.19-1.54.508-1.4 1.517-1.657-.223-2.016-2.27-2.644-3.593-.369-.777-.684-1.582-1.003-2.388-.172-.434-.302-.772-.347-1.235-.024-.248.166-.965-.258-1 .085-.162.895-.052 1.07-.055.637-.014 1.297.003 1.867-.327 1.112-.644 1.024-2.036 1.165-3.13.223-1.735.042-3.591.001-5.335a147.32 147.32 0 0 1-.026-5.511c.021-1.468.384-3.508-.363-4.825-.744-1.315-1.927-1.42-3.289-1.504-1.716-.106-3.417.003-5.131.07-1.103.042-2.583-.064-3.454.713-.941.84-.762 2.438-.709 3.536.068 1.41.318 2.841.491 4.214.218 1.719-.104 3.494.088 5.225.17 1.551.29 3.184.587 4.715.207 1.059.757 1.68 1.86 1.816.72.088 1.36-.025 1.83.652.418.603.355 1.711.244 2.412-.53 3.334-2.488 6.361-4.24 9.16-.37.587-.744 1.127-1.299 1.558-.396.307-1.663.723-1.3 1.35.282.486 1.882.633 2.346.9.458.264 1.34.86 1.954.68.566-.164.996-1.57 1.26-2.133.36-.763.79-1.479 1.19-2.22.763-1.417 1.664-2.717 2.511-4.078 1.03 3.28 3.931 4.544 7.165 4.33 2.062-.135 1.788-1.858 1.797-3.469.01-1.47-.345-2.394-1.963-2.045-.459.099.441-.096 0 0" id="Fill-11"/><path d="M137.018 18.426c-.068-1.607-.855-1.865-2.281-1.965-1.464-.102-2.916-.086-4.384-.086-1.431 0-3.03.199-4.44-.012-.77-.115-.82-.336-.833-1.13-.013-.732.04-1.47.236-2.179.689-2.499 2.768-4.355 4.605-6.038.815-.745 1.72-1.607 1.863-2.76.146-1.163-.068-2.26-1.336-2.455-2.31-.354-4.858-.258-7.219-.246-2.916.016-6.03-.377-9.011-.084-1.05.103-1.524.283-1.945 1.281-.41.974-1.557 2.696-.074 3.226 1.193.428 2.667-.073 3.902-.084 1.485-.014 2.979.044 4.461.144.425.028 1.569.004 1.934.242.275.18.46 1.057.414 1.389-.076.545-.7 1.16-.973 1.634-.342.59-.684 1.139-1.003 1.736-.708 1.321-.621 2.663-.669 4.115-.013.428.136 1.174-.204 1.475-.467.411-2.024.215-2.61.243-2.747.127-5.65.282-8.392.068-.653-.05-.916-.339-1.169.294-.162.408-.07 1.223-.036 1.675.031.408.073.802.07 1.234-.005.744-.075 1.159.767 1.275 1.232.17 2.686-.017 3.935-.004 1.588.016 3.176.162 4.763.137.77-.012 3.04-.385 3.422.453.23.504.053 1.398.054 1.94.003.703-.06 1.352-.147 2.053-.155 1.26-.261 2.361-.779 3.534-.182.413-.181.555-.569.7-.206.076-.883.08-1.073 0-.752-.306-1.265-1.2-2.111-1.448-.77-.226-2.044.373-2.522 1.011-.284.38-.39 1.055-.35 1.524.077.89.805 1.199 1.487 1.6 1.348.794 2.473 1.668 3.926 2.293 1.138.49 2.754 1.359 3.89.48.633-.489.69-1.06.861-1.807.167-.722.441-1.418.648-2.133.484-1.674.885-3.417 1.085-5.15.103-.89.156-1.763.22-2.654.043-.582.013-1.357.285-1.906.036-.071.107-.436.175-.476.227-.135 1.204.052 1.498.049.732-.008 1.464-.016 2.197-.016 1.78 0 3.559-.002 5.338-.004.633 0 1.452-.016 1.873-.599.482-.666.252-1.816.22-2.57-.023-.562.024.56 0 0" id="Fill-13"/><g id="Group-17"><path d="M18.127 13.174c.274-.217 1.127-.04 1.439-.049.658-.02 1.31-.068 1.972-.058.811.012 2.136-.229 2.753.428.661.702.368 2.272.39 3.153.015.534-.048 1.048-.071 1.575-.03.715.142 1.114-.444 1.568-.717.556-1.907.806-2.784.981-.685.138-2.516.43-2.988-.309-.21-.33-.083-1.054-.116-1.444a93.6 93.6 0 0 1-.151-1.964c-.03-.457-.203-3.897 0-3.881.04-.032-.04-.003 0 0m-9.361 7.941c-.688.011-1.333.03-2.008.137-.592.095-1.206.245-1.772-.05-1.107-.576-.777-1.917-.839-2.932-.066-1.106-.54-2.872.24-3.803.528-.63 1.84-.481 2.615-.5 1.156-.024 2.54-.196 3.647.11 1.18.327 1.119 1.356 1.203 2.472.075.996.575 2.704-.124 3.533-.696.827-1.943 1.068-2.962 1.033-.295.005.16.006 0 0m-8.412.842c.111.897.407 1.769.876 2.556.612 1.026 1.832 1.075 2.929 1.075 1.789 0 3.71-.258 5.461-.055.57.066 1.191.077 1.749.176.988.173.918 1.07.826 1.889-.103.925-.12 1.78-.06 2.715.074 1.126-.01 2.263.282 3.362.538 2.022 2.49 1.587 4.174 1.486.906-.054 1.695-.076 1.739-1.126.038-.938-.05-1.852-.103-2.782-.057-1.01-.156-2.02-.235-3.027-.04-.505-.07-.95.001-1.457.024-.175.017-.497.117-.669.262-.448.443-.292.956-.334 1.949-.161 3.853-.422 5.816-.664.99-.123 2.328-.07 3.097-.67.721-.564.795-1.871.99-2.79.325-1.538.633-3.055.881-4.6.169-1.056.064-2.07-.021-3.121-.083-1.019.045-2.4-.41-3.342-.829-1.717-2.863-1.726-4.535-1.81-1.076-.053-2.151.027-3.227.017-.82-.006-2.734.207-3.341-.43-.528-.552-.218-1.838-.218-2.555.001-1.047.033-2.195-.246-3.215-.244-.889-.924-1.546-1.75-1.946-.76-.368-2.248-.423-2.924.096-1.506 1.161-.992 3.262-.984 4.881.003.657-.071 1.345-.079 1.978-.004.28.206.846.025 1.105-.297.422-2.309.219-2.874.263-2.414.192-4.945-.607-7.305.215-2.063.72-1.776 3.471-1.91 5.22-.197 2.567.236 5.012.303 7.559.008.065 0-.034 0 0" id="Fill-15"/></g><path d="M53.423 12.796c1.012-.75 2.49-.459 3.634-.36.553.049 1.106.053 1.66.047.698-.008 1.114-.183 1.386.453.264.615.13 1.599.123 2.247-.008.743-.019 1.484.002 2.228.033 1.123.561 3.165-.585 3.834-.823.48-2.057.381-2.968.379-1.158-.003-2.571-.104-3.276-1.164-.586-.882-.439-2.539-.496-3.584-.055-.984-.408-3.393.52-4.08.21-.155-.185.136 0 0m-11.83.706c.857-.515 2.038-.484 3.005-.53.409-.019 1.335-.202 1.705-.013.363.185.404 1.068.47 1.534.185 1.29.294 2.653.357 3.954.044.903.291 2.34-.508 2.938-.772.578-2.111.489-3.036.37-1.086-.142-1.685-.564-2.09-1.54-.435-1.049-.538-2.233-.5-3.356.034-.98-.371-2.772.597-3.357.7-.42-.29.176 0 0m-.003 12.645c1.156.064 2.42-.109 3.612-.051.418.02 1.186-.146 1.36.152.224.384-.021 1.589-.042 2.03-.07 1.413.067 2.793.076 4.21.006.87.05 2.393.934 2.81.912.43 2.204.573 3.204.548 1.115-.03 2.537-.557 2.922-1.701.38-1.13-.045-2.4-.04-3.561.004-1.442.15-2.975-.05-4.405 1.728.013 3.507-.05 5.23-.257.786-.095 1.524-.208 2.314-.211.611-.002 1.349.013 1.939-.164 1.527-.458 1.203-2.824 1.387-4.066.202-1.362.444-2.714.601-4.085.193-1.682.214-3.367.217-5.06.003-1.224.04-3.205-1.386-3.573-1.294-.334-2.995-.032-4.335-.007-1.764.034-3.532.086-5.293.007-.61-.028-.83-.088-.933-.739-.098-.612-.004-1.365.023-1.986.052-1.208.466-3.193-.258-4.26-.635-.936-1.856-.629-2.836-.765-1.286-.177-2.71-.482-3.394.98-.597 1.277-.51 3.141-.532 4.52-.008.498.18 1.648-.066 1.991-.324.45-1.336.222-1.812.222-1.821-.002-3.666-.093-5.486 0-.676.035-1.346.156-2.012.205-.564.042-1.023-.018-1.339.538-.807 1.422-.155 3.663.039 5.165.23 1.79.496 3.584.654 5.383.08.913.162 1.83.211 2.747.041.791-.117 1.766.217 2.513.676 1.515 3.6.8 4.874.87.092.005-1-.055 0 0" id="Fill-18"/></g></svg>